<svg width="17" height="20" viewBox="0 0 17 20" fill="none" xmlns="http://www.w3.org/2000/svg">
<path d="M16.9938 5.97268C17.0021 5.90268 17.0021 5.83167 16.9938 5.76167V5.68128C16.9792 5.6252 16.9592 5.57126 16.9343 5.52051C16.9233 5.49157 16.909 5.46453 16.8918 5.44012L16.8069 5.30949L16.7389 5.2492L16.6369 5.15877L8.98972 0.134622C8.86055 0.0464294 8.71403 0 8.56488 0C8.41573 0 8.2692 0.0464294 8.14003 0.134622L0.49282 5.15877L0.416348 5.22911L0.322882 5.30949C0.298198 5.34235 0.278118 5.37966 0.263404 5.42002C0.236218 5.44886 0.213251 5.48281 0.195429 5.52051C0.173367 5.5646 0.15623 5.61188 0.144447 5.66118C0.139694 5.69444 0.139694 5.72841 0.144447 5.76167C0.0860274 5.82124 0.0371053 5.8927 0 5.97268V14.0113C0.00110274 14.1904 0.0426442 14.3658 0.120326 14.5195C0.198007 14.6732 0.309007 14.7996 0.441839 14.8855L8.08905 19.9097C8.12416 19.9339 8.16115 19.9541 8.19951 19.97H8.28448C8.42407 20.01 8.56974 20.01 8.70933 19.97H8.7943L8.91325 19.9097L16.5605 14.8855C16.6917 14.7983 16.801 14.6714 16.8771 14.5177C16.9533 14.3641 16.9935 14.1894 16.9938 14.0113V5.97268ZM8.4969 9.86137L2.60005 5.97268L4.9452 4.44534L10.7486 8.36417L8.4969 9.86137ZM8.4969 2.10409L14.3938 5.97268L12.4904 7.22872L6.68706 3.29983L8.4969 2.10409ZM1.69938 7.68089L7.64721 11.6198V17.3273L1.69938 13.4185V7.68089ZM9.34659 17.3273V11.6198L11.8957 9.93171V13.0065L13.595 12.0017V8.8063L15.2944 7.69094V13.4185L9.34659 17.3273Z" fill="black"/>
</svg>
