<svg width="72" height="72" viewBox="0 0 72 72" fill="none" xmlns="http://www.w3.org/2000/svg">
<path d="M35.7471 6.51636C19.423 6.51636 6.19336 19.749 6.19336 36.0701C6.19336 48.5898 13.9827 59.293 24.9788 63.6003C24.7184 61.2633 24.4877 57.6659 25.0794 55.1159C25.6178 52.8083 28.5465 40.4248 28.5465 40.4248C28.5465 40.4248 27.662 38.6527 27.662 36.0346C27.662 31.9284 30.0434 28.8606 33.0106 28.8606C35.5341 28.8606 36.75 30.754 36.75 33.023C36.75 35.5613 35.1347 39.3509 34.3034 42.8654C33.6082 45.806 35.7796 48.2052 38.6788 48.2052C43.9299 48.2052 47.9709 42.6672 47.9709 34.6708C47.9709 27.5945 42.8856 22.6481 35.6258 22.6481C27.2153 22.6481 22.2778 28.9553 22.2778 35.4725C22.2778 38.0108 23.257 40.7354 24.4788 42.2175C24.5826 42.3291 24.656 42.4656 24.6917 42.6138C24.7275 42.762 24.7244 42.9169 24.6829 43.0636C24.4581 43.9955 23.9582 46.0042 23.8635 46.4154C23.7333 46.9568 23.4345 47.0721 22.8724 46.8118C19.1834 45.093 16.8759 39.697 16.8759 35.3601C16.8759 26.0384 23.6475 17.477 36.4039 17.477C46.6574 17.477 54.6242 24.7811 54.6242 34.5466C54.6242 44.7351 48.2017 52.9267 39.2882 52.9267C36.2914 52.9267 33.4781 51.3736 32.5137 49.5364L30.6706 56.5595C30.005 59.1274 28.2034 62.346 26.9993 64.3103C29.8337 65.1854 32.7836 65.6292 35.7501 65.6268C52.0712 65.6268 65.3038 52.3942 65.3038 36.0731C65.3038 19.7519 52.0682 6.51636 35.7471 6.51636Z" fill="#525252" fill-opacity="0.7"/>
</svg>
