<svg width="71" height="71" viewBox="0 0 71 71" fill="none" xmlns="http://www.w3.org/2000/svg">
<path d="M6.11719 35.6054C6.1206 49.9537 16.5542 62.1707 30.7252 64.4192V44.0346H23.3255V35.6054H30.734V29.1889C30.4027 26.1484 31.4413 23.1181 33.5678 20.9199C35.6944 18.7218 38.6886 17.5835 41.7386 17.8139C43.9275 17.8492 46.111 18.0442 48.2719 18.3972V25.5693H44.5852C43.3159 25.4031 42.0399 25.8222 41.1165 26.7087C40.193 27.5953 39.7223 28.8531 39.8369 30.1279V35.6054H47.919L46.6269 44.0375H39.8369V64.4192C55.1622 61.9972 65.909 48.0007 64.2917 32.5695C62.6741 17.1383 49.2583 5.67449 33.7638 6.48314C18.2691 7.29178 6.11967 20.0898 6.11719 35.6054Z" fill="#525252" fill-opacity="0.7"/>
</svg>
