<svg width="32" height="34" viewBox="0 0 32 34" fill="none" xmlns="http://www.w3.org/2000/svg">
<path d="M16.276 28.9747C15.4429 28.1882 14.5013 27.3701 13.5054 26.4997H13.4925C9.98565 23.4472 6.01119 19.9932 4.25582 15.8544C3.67912 14.5368 3.37349 13.1032 3.35939 11.6497C3.35554 9.65523 4.10698 7.74329 5.44391 6.34599C6.78083 4.94868 8.59038 4.18398 10.4636 4.22469C11.9886 4.22725 13.4807 4.69643 14.7622 5.57632C15.3254 5.96539 15.8348 6.43603 16.276 6.97469C16.7197 6.43815 17.2294 5.96778 17.7912 5.57632C19.0722 4.69625 20.564 4.22704 22.0885 4.22469C23.9617 4.18398 25.7713 4.94868 27.1082 6.34599C28.4452 7.74329 29.1966 9.65523 29.1927 11.6497C29.1795 13.1056 28.8739 14.5416 28.2963 15.8613C26.5409 20.0001 22.5678 23.4527 19.0609 26.4997L19.048 26.5107C18.0508 27.3756 17.1105 28.1937 16.2773 28.9857L16.276 28.9747ZM10.4636 6.97469C9.2604 6.95866 8.09992 7.44885 7.2344 8.33869C6.40049 9.21066 5.93442 10.4054 5.94263 11.6497C5.95737 12.7091 6.18277 13.7532 6.60407 14.7132C7.43269 16.4989 8.55075 18.1149 9.90686 19.4872C11.1869 20.8622 12.6594 22.1932 13.933 23.3124C14.2856 23.6218 14.6447 23.9339 15.0038 24.2461L15.2298 24.4427C15.5747 24.7424 15.9312 25.0532 16.276 25.3584L16.2928 25.3419L16.3006 25.3351H16.3083L16.32 25.3254H16.3264H16.3329L16.3561 25.3048L16.4091 25.2594L16.4181 25.2512L16.4323 25.2402H16.4401L16.4517 25.2292L17.3094 24.4798L17.5341 24.2832C17.8971 23.9683 18.2562 23.6562 18.6088 23.3468C19.8824 22.2276 21.3562 20.8979 22.6362 19.5161C23.9926 18.1446 25.1107 16.5289 25.939 14.7434C26.368 13.7752 26.5966 12.7201 26.6095 11.6497C26.6148 10.4092 26.1489 9.21909 25.3177 8.34969C24.4538 7.45583 23.2932 6.9616 22.0885 6.97469C20.6185 6.96138 19.2133 7.61731 18.2265 8.77732L16.276 11.1698L14.3256 8.77732C13.3389 7.61731 11.9336 6.96138 10.4636 6.97469Z" fill="black"/>
</svg>
