<svg width="26" height="25" viewBox="0 0 26 25" fill="none" xmlns="http://www.w3.org/2000/svg">
<path d="M13 0C5.8318 0 0 5.6075 0 12.5C0 19.3925 5.8318 25 13 25C20.1682 25 26 19.3925 26 12.5C26 5.6075 20.1682 0 13 0ZM23.3103 11.25H14.3V2.58625C16.5878 2.86669 18.7139 3.86967 20.3447 5.43775C21.9755 7.00582 23.0186 9.05021 23.3103 11.25ZM2.6 12.5C2.6 7.41 6.5793 3.205 11.7 2.58625V12.5C11.7038 12.6907 11.7532 12.878 11.8443 13.0475C11.8638 13.085 11.8729 13.1263 11.8976 13.1637L17.3602 21.5675C15.9949 22.1803 14.5067 22.4985 13 22.5C7.2657 22.5 2.6 18.0138 2.6 12.5ZM19.5676 20.245L15.3465 13.75H23.3103C22.9769 16.297 21.6367 18.6228 19.5676 20.245Z" fill="black"/>
</svg>
