<svg width="26" height="25" viewBox="0 0 26 25" fill="none" xmlns="http://www.w3.org/2000/svg">
<path d="M24.4231 8.32348C24.2606 8.35818 22.0792 8.86064 19.2842 10.6032C18.8643 8.58949 17.6215 4.81906 13.9438 0.984373L13 0L12.0562 0.985658C8.3655 4.83448 7.1279 8.61519 6.7119 10.6418C3.9065 8.86964 1.742 8.36075 1.5834 8.32477L0 7.97522V9.57901C0 18.9473 5.1025 25 13 25C20.7753 25 26 18.8033 26 9.57901V7.98293L24.4231 8.32348ZM9.0987 12.198C9.1013 12.1556 9.2963 8.21425 13 3.80384C16.6582 8.17313 16.8987 12.1492 16.9 12.1492V12.3098C15.4421 13.5074 14.1291 14.8675 12.987 16.363C11.8417 14.8939 10.5379 13.5525 9.0987 12.3625V12.198ZM13 22.4298C6.0892 22.4298 3.1863 17.0376 2.6819 11.4244C4.8334 12.3471 8.6827 14.542 11.921 19.2929L13.0143 20.898L14.0868 19.2788C17.2406 14.5137 21.1393 12.3252 23.3116 11.4115C22.7942 16.8449 19.8952 22.4298 13 22.4298Z" fill="black"/>
</svg>
