<svg width="72" height="71" viewBox="0 0 72 71" fill="none" xmlns="http://www.w3.org/2000/svg">
<path d="M35.7834 61.969C28.5057 61.969 27.6478 61.9311 24.8078 61.8086C22.5931 61.7368 20.4071 61.2929 18.3438 60.4961C14.774 59.1264 11.9513 56.3425 10.5634 52.8223C9.78629 50.7807 9.36712 48.6238 9.32387 46.4436C9.1582 43.6494 9.1582 42.7336 9.1582 35.614C9.1582 28.4186 9.19666 27.5786 9.32387 24.7932C9.36807 22.616 9.7872 20.462 10.5634 18.4232C11.9498 14.8985 14.7771 12.112 18.3527 10.7465C20.4195 9.97713 22.6049 9.56278 24.8137 9.52151C27.6389 9.36401 28.5678 9.36401 35.7834 9.36401C43.12 9.36401 43.9631 9.40193 46.7588 9.52151C48.9731 9.56313 51.1643 9.97742 53.2375 10.7465C56.8121 12.1136 59.6388 14.8995 61.0268 18.4232C61.817 20.4917 62.2383 22.6794 62.2723 24.8894C62.4379 27.6836 62.4379 28.5965 62.4379 35.7132C62.4379 42.8298 62.3965 43.7632 62.2723 46.5253C62.2282 48.7075 61.8078 50.8664 61.0298 52.9098C59.6382 56.4323 56.8112 59.2174 53.2375 60.5865C51.1673 61.3513 48.9808 61.7645 46.7706 61.8086C43.9454 61.969 43.0194 61.969 35.7834 61.969ZM35.6828 13.9811C28.4465 13.9811 27.6951 14.0161 24.8699 14.1415C23.1836 14.1636 21.5136 14.4704 19.9325 15.0486C17.5976 15.9295 15.7501 17.7436 14.8471 20.0419C14.2561 21.6178 13.9448 23.2823 13.927 24.9623C13.7702 27.7886 13.7702 28.5294 13.7702 35.614C13.7702 42.614 13.7969 43.4628 13.927 46.2715C13.9535 47.9346 14.2646 49.5813 14.8471 51.1423C15.7514 53.4392 17.5986 55.2519 19.9325 56.1328C21.5126 56.7149 23.1832 57.0218 24.8699 57.0398C27.7336 57.2032 28.488 57.2032 35.6828 57.2032C42.9396 57.2032 43.691 57.1682 46.4925 57.0398C48.18 57.0197 49.8511 56.7129 51.4329 56.1328C53.7535 55.2443 55.5891 53.4357 56.4917 51.1482C57.0816 49.5711 57.3925 47.9057 57.4117 46.2248H57.4443C57.5715 43.4365 57.5715 42.6928 57.5715 35.5673C57.5715 28.442 57.5389 27.6923 57.4117 24.9069C57.3851 23.2458 57.0739 21.6009 56.4917 20.0419C55.5912 17.7511 53.7552 15.9391 51.4329 15.0486C49.8514 14.4675 48.18 14.1606 46.4925 14.1415C43.6318 13.9811 42.8834 13.9811 35.6828 13.9811ZM35.7834 49.0861C30.251 49.0896 25.2617 45.8069 23.1419 40.7692C21.022 35.7313 22.1894 29.9303 26.0995 26.0721C30.0096 22.2137 35.8922 21.0577 41.0039 23.1433C46.1156 25.2289 49.4494 30.1453 49.4509 35.5994C49.4426 43.0401 43.3301 49.0715 35.7834 49.0861ZM35.7834 26.8436C30.8817 26.8436 26.9082 30.7613 26.9082 35.5936C26.9082 40.4262 30.8817 44.3436 35.7834 44.3436C40.6847 44.3436 44.6584 40.4262 44.6584 35.5936C44.6468 30.7656 40.68 26.8548 35.7834 26.8436ZM49.9834 24.764C48.2243 24.7576 46.8028 23.3482 46.8061 21.614C46.8094 19.8799 48.2362 18.4757 49.9952 18.4757C51.7539 18.4757 53.1807 19.8798 53.1843 21.614C53.1849 22.4507 52.8476 23.2533 52.2471 23.8443C51.6465 24.4354 50.8318 24.7663 49.9834 24.764Z" fill="#525252" fill-opacity="0.7"/>
</svg>
