<svg width="51" height="51" viewBox="0 0 51 51" fill="none" xmlns="http://www.w3.org/2000/svg">
<path d="M25.2032 44.4437C20.0781 44.4437 19.474 44.4166 17.474 44.3291C15.9143 44.2778 14.3749 43.9607 12.9219 43.3916C10.4079 42.4132 8.42008 40.4247 7.44271 37.9103C6.89544 36.452 6.60025 34.9114 6.56979 33.3541C6.45312 31.3582 6.45312 30.7041 6.45312 25.6187C6.45312 20.4791 6.48021 19.8791 6.56979 17.8895C6.60092 16.3343 6.89608 14.7958 7.44271 13.3395C8.41902 10.8218 10.4101 8.83153 12.9281 7.85615C14.3836 7.30659 15.9226 7.01063 17.4781 6.98115C19.4677 6.86865 20.1219 6.86865 25.2032 6.86865C30.3699 6.86865 30.9636 6.89574 32.9324 6.98115C34.4918 7.01088 36.0349 7.3068 37.4949 7.85615C40.0122 8.83263 42.0028 10.8226 42.9803 13.3395C43.5368 14.817 43.8334 16.3796 43.8574 17.9582C43.9741 19.9541 43.9741 20.6062 43.9741 25.6895C43.9741 30.7728 43.9449 31.4395 43.8574 33.4124C43.8264 34.9712 43.5303 36.5132 42.9824 37.9728C42.0024 40.4889 40.0116 42.4782 37.4949 43.4562C36.037 44.0024 34.4972 44.2976 32.9407 44.3291C30.9511 44.4437 30.2991 44.4437 25.2032 44.4437ZM25.1324 10.1666C20.0365 10.1666 19.5073 10.1916 17.5177 10.2812C16.3302 10.2969 15.1541 10.516 14.0406 10.9291C12.3964 11.5583 11.0953 12.8541 10.4594 14.4957C10.0432 15.6214 9.82398 16.8103 9.81146 18.0103C9.70104 20.0291 9.70104 20.5582 9.70104 25.6187C9.70104 30.6187 9.71979 31.2249 9.81146 33.2312C9.83012 34.4191 10.0492 35.5953 10.4594 36.7103C11.0962 38.3509 12.3971 39.6457 14.0406 40.2749C15.1534 40.6907 16.3299 40.9099 17.5177 40.9228C19.5344 41.0395 20.0656 41.0395 25.1324 41.0395C30.2428 41.0395 30.772 41.0145 32.7449 40.9228C33.9332 40.9084 35.1101 40.6893 36.2241 40.2749C37.8582 39.6403 39.1509 38.3484 39.7866 36.7145C40.202 35.588 40.4209 34.3984 40.4345 33.1978H40.4574C40.547 31.2062 40.547 30.6749 40.547 25.5853C40.547 20.4958 40.5241 19.9603 40.4345 17.9707C40.4157 16.7842 40.1966 15.6093 39.7866 14.4957C39.1524 12.8594 37.8595 11.5651 36.2241 10.9291C35.1103 10.514 33.9332 10.2948 32.7449 10.2812C30.7303 10.1666 30.2032 10.1666 25.1324 10.1666ZM25.2032 35.2416C21.3072 35.2441 17.7936 32.8993 16.3008 29.3009C14.8079 25.7024 15.63 21.5589 18.3836 18.803C21.1372 16.047 25.2799 15.2213 28.8797 16.711C32.4795 18.2007 34.8272 21.7124 34.8282 25.6082C34.8224 30.923 30.5178 35.2312 25.2032 35.2416ZM25.2032 19.3541C21.7514 19.3541 18.9531 22.1524 18.9531 25.6041C18.9531 29.0559 21.7514 31.8541 25.2032 31.8541C28.6549 31.8541 31.4532 29.0559 31.4532 25.6041C31.4451 22.1555 28.6516 19.3621 25.2032 19.3541ZM35.2032 17.8687C33.9645 17.8641 32.9634 16.8574 32.9657 15.6187C32.968 14.38 33.9728 13.377 35.2116 13.377C36.4501 13.377 37.4549 14.3799 37.4574 15.6187C37.4578 16.2163 37.2203 16.7895 36.7974 17.2117C36.3745 17.6339 35.8007 17.8703 35.2032 17.8687Z" fill="#525252" fill-opacity="0.7"/>
</svg>
