<svg width="18" height="11" viewBox="0 0 18 11" fill="none" xmlns="http://www.w3.org/2000/svg">
<path d="M0.0125782 10.0996V0.159609H4.33858C4.78658 0.159609 5.19724 0.252942 5.57058 0.439609C5.94391 0.626276 6.26591 0.873609 6.53658 1.18161C6.81658 1.48961 7.03125 1.83494 7.18058 2.21761C7.33925 2.60028 7.41858 2.99228 7.41858 3.39361C7.41858 3.84161 7.33458 4.26628 7.16658 4.66761C7.00791 5.05961 6.78391 5.40028 6.49458 5.68961C6.20525 5.97894 5.86458 6.18894 5.47258 6.31961L7.81058 10.0996H6.04658L3.89058 6.64161H1.58058V10.0996H0.0125782ZM1.58058 5.25561H4.32458C4.61391 5.25561 4.87058 5.17161 5.09458 5.00361C5.31858 4.82628 5.49591 4.59761 5.62658 4.31761C5.75725 4.03761 5.82258 3.72961 5.82258 3.39361C5.82258 3.04828 5.74791 2.74028 5.59858 2.46961C5.44925 2.18961 5.25325 1.96561 5.01058 1.79761C4.76791 1.62961 4.51125 1.54561 4.24058 1.54561H1.58058V5.25561ZM13.3988 10.1696C12.6148 10.1696 11.9474 10.0343 11.3968 9.76361C10.8461 9.49294 10.4028 9.12428 10.0668 8.65761C9.73077 8.18161 9.4881 7.64961 9.33877 7.06161C9.18943 6.46428 9.11477 5.84361 9.11477 5.19961V0.159609H10.6828V5.19961C10.6828 5.65694 10.7294 6.10028 10.8228 6.52961C10.9161 6.94961 11.0654 7.32761 11.2708 7.66361C11.4761 7.99961 11.7514 8.26561 12.0968 8.46161C12.4514 8.65761 12.8854 8.75561 13.3988 8.75561C13.9214 8.75561 14.3554 8.65761 14.7008 8.46161C15.0554 8.25628 15.3354 7.98561 15.5408 7.64961C15.7461 7.30428 15.8908 6.92161 15.9748 6.50161C16.0681 6.08161 16.1148 5.64761 16.1148 5.19961V0.159609H17.6968V5.19961C17.6968 5.88094 17.6128 6.52028 17.4448 7.11761C17.2861 7.71494 17.0341 8.24228 16.6888 8.69961C16.3528 9.15694 15.9094 9.51628 15.3588 9.77761C14.8174 10.0389 14.1641 10.1696 13.3988 10.1696Z" fill="black"/>
</svg>
