<svg width="32" height="31" viewBox="0 0 32 31" fill="none" xmlns="http://www.w3.org/2000/svg">
<path d="M15.778 17.5996C18.6274 17.5996 20.9447 15.3571 20.9447 12.5996C20.9447 9.84211 18.6274 7.59961 15.778 7.59961C12.9286 7.59961 10.6113 9.84211 10.6113 12.5996C10.6113 15.3571 12.9286 17.5996 15.778 17.5996ZM15.778 10.0996C17.2027 10.0996 18.3613 11.2209 18.3613 12.5996C18.3613 13.9784 17.2027 15.0996 15.778 15.0996C14.3533 15.0996 13.1947 13.9784 13.1947 12.5996C13.1947 11.2209 14.3533 10.0996 15.778 10.0996Z" fill="black"/>
<path d="M15.0276 27.3671C15.2463 27.5182 15.5082 27.5994 15.7768 27.5994C16.0454 27.5994 16.3074 27.5182 16.526 27.3671C16.9186 27.0984 26.1476 20.6496 26.1101 12.5996C26.1101 7.08586 21.4743 2.59961 15.7768 2.59961C10.0793 2.59961 5.44347 7.08586 5.44347 12.5934C5.40601 20.6496 14.635 27.0984 15.0276 27.3671ZM15.7768 5.09961C20.0509 5.09961 23.5268 8.46336 23.5268 12.6059C23.5539 18.1534 17.859 23.1346 15.7768 24.7684C13.6959 23.1334 7.99968 18.1509 8.02681 12.5996C8.02681 8.46336 11.5027 5.09961 15.7768 5.09961Z" fill="black"/>
</svg>
