<svg width="37" height="37" viewBox="0 0 37 37" fill="none" xmlns="http://www.w3.org/2000/svg">
<path d="M25.4576 16.6716C26.3712 15.1147 26.7657 13.3075 26.5841 11.5116C26.3156 8.83556 24.8216 6.47006 22.3796 4.85156L20.7221 7.35056C22.4006 8.46356 23.4221 10.0491 23.5991 11.8116C23.6807 12.6307 23.5788 13.4577 23.3006 14.2325C23.0225 15.0073 22.5751 15.7104 21.9911 16.2906L20.2031 18.0786L22.6301 18.7911C28.9781 20.6511 29.0516 27.0351 29.0516 27.0996H32.0516C32.0516 24.4161 30.6176 19.1721 25.4576 16.6716Z" fill="black"/>
<path d="M14.8008 18.0996C18.1098 18.0996 20.8008 15.4086 20.8008 12.0996C20.8008 8.79061 18.1098 6.09961 14.8008 6.09961C11.4918 6.09961 8.80078 8.79061 8.80078 12.0996C8.80078 15.4086 11.4918 18.0996 14.8008 18.0996ZM14.8008 9.09961C16.4553 9.09961 17.8008 10.4451 17.8008 12.0996C17.8008 13.7541 16.4553 15.0996 14.8008 15.0996C13.1463 15.0996 11.8008 13.7541 11.8008 12.0996C11.8008 10.4451 13.1463 9.09961 14.8008 9.09961ZM17.0508 19.5996H12.5508C7.58728 19.5996 3.55078 23.6361 3.55078 28.5996V30.0996H6.55078V28.5996C6.55078 25.2906 9.24178 22.5996 12.5508 22.5996H17.0508C20.3598 22.5996 23.0508 25.2906 23.0508 28.5996V30.0996H26.0508V28.5996C26.0508 23.6361 22.0143 19.5996 17.0508 19.5996Z" fill="black"/>
</svg>
