<svg width="26" height="27" viewBox="0 0 26 27" fill="none" xmlns="http://www.w3.org/2000/svg">
<path d="M19.8858 14.4904C19.7621 14.3665 19.6152 14.2681 19.4534 14.2011C19.2917 14.134 19.1183 14.0994 18.9432 14.0994C18.768 14.0994 18.5947 14.134 18.4329 14.2011C18.2711 14.2681 18.1242 14.3665 18.0005 14.4904L15.8752 16.6157C14.8898 16.3224 13.0512 15.6557 11.8858 14.4904C10.7205 13.325 10.0538 11.4864 9.76049 10.501L11.8858 8.37571C12.0097 8.252 12.1081 8.10506 12.1751 7.94331C12.2422 7.78155 12.2768 7.60816 12.2768 7.43305C12.2768 7.25794 12.2422 7.08454 12.1751 6.92279C12.1081 6.76104 12.0097 6.6141 11.8858 6.49038L6.55249 1.15705C6.42877 1.03312 6.28183 0.934803 6.12008 0.867722C5.95833 0.800641 5.78493 0.766113 5.60982 0.766113C5.43471 0.766113 5.26132 0.800641 5.09956 0.867722C4.93781 0.934803 4.79087 1.03312 4.66715 1.15705L1.05115 4.77305C0.544487 5.27972 0.259153 5.97572 0.26982 6.68638C0.300487 8.58505 0.803154 15.1797 6.00049 20.377C11.1978 25.5744 17.7925 26.0757 19.6925 26.1077H19.7298C20.4338 26.1077 21.0992 25.8304 21.6032 25.3264L25.2192 21.7104C25.3431 21.5867 25.4414 21.4397 25.5085 21.278C25.5756 21.1162 25.6101 20.9428 25.6101 20.7677C25.6101 20.5926 25.5756 20.4192 25.5085 20.2575C25.4414 20.0957 25.3431 19.9488 25.2192 19.8251L19.8858 14.4904ZM19.7165 23.4397C18.0525 23.4117 12.3592 22.965 7.88582 18.4904C3.39782 14.0024 2.96315 8.28905 2.93649 6.65838L5.60982 3.98505L9.05782 7.43305L7.33382 9.15705C7.1771 9.31365 7.06188 9.50683 6.99856 9.71914C6.93524 9.93145 6.92582 10.1562 6.97115 10.373C7.00315 10.5264 7.78582 14.1624 9.99915 16.3757C12.2125 18.589 15.8485 19.3717 16.0018 19.4037C16.2185 19.4503 16.4435 19.4417 16.656 19.3785C16.8685 19.3154 17.0617 19.1998 17.2178 19.0424L18.9432 17.3184L22.3912 20.7664L19.7165 23.4397Z" fill="black"/>
</svg>
