<svg width="16" height="18" viewBox="0 0 16 18" fill="none" xmlns="http://www.w3.org/2000/svg">
<path d="M2.94453 11.6691C3.67878 11.6647 4.38498 11.3672 4.92468 10.835L10.1771 14.0461C10.1102 14.294 10.0763 14.5506 10.0764 14.8086C10.071 15.5365 10.3004 16.2442 10.726 16.8125C11.1516 17.3808 11.7473 17.775 12.4129 17.9286C13.0785 18.0823 13.7733 17.9861 14.3803 17.6562C14.9873 17.3264 15.4695 16.783 15.7456 16.1175C16.0217 15.4521 16.0749 14.7053 15.8962 14.0028C15.7175 13.3004 15.3179 12.6852 14.7646 12.2609C14.2113 11.8365 13.5382 11.629 12.8585 11.6731C12.1788 11.7173 11.5341 12.0105 11.0329 12.5033L5.78051 9.29215C5.8439 9.07111 5.87779 8.84161 5.88119 8.61044L11.0413 5.45307C11.5398 5.9346 12.1779 6.21827 12.8488 6.2565C13.5197 6.29472 14.1824 6.08518 14.7259 5.66301C15.2694 5.24084 15.6606 4.63172 15.8339 3.93782C16.0071 3.24391 15.9519 2.50741 15.6775 1.85185C15.4031 1.19629 14.9262 0.661524 14.3268 0.337252C13.7273 0.0129802 13.0418 -0.0810802 12.3852 0.0708463C11.7286 0.222773 11.1408 0.611446 10.7205 1.17168C10.3001 1.73191 10.0727 2.42964 10.0764 3.14783C10.0793 3.40554 10.1131 3.66178 10.1771 3.91026L5.40294 6.82545C5.12631 6.36795 4.74309 5.99528 4.29094 5.74405C3.83878 5.49283 3.33326 5.37171 2.82407 5.3926C2.31487 5.41349 1.81952 5.57566 1.3867 5.86318C0.953886 6.1507 0.598502 6.55368 0.35548 7.03249C0.112459 7.51131 -0.00983519 8.04948 0.000618099 8.59413C0.0110714 9.13877 0.153912 9.67113 0.415101 10.1389C0.67629 10.6066 1.04684 10.9937 1.49032 11.262C1.9338 11.5303 2.43496 11.6706 2.94453 11.6691ZM13.0131 13.4631C13.262 13.4631 13.5053 13.542 13.7123 13.6899C13.9193 13.8377 14.0806 14.0478 14.1759 14.2937C14.2711 14.5395 14.296 14.8101 14.2475 15.0711C14.1989 15.3321 14.079 15.5718 13.903 15.76C13.727 15.9481 13.5028 16.0763 13.2586 16.1282C13.0145 16.1801 12.7614 16.1535 12.5315 16.0516C12.3015 15.9498 12.1049 15.7773 11.9666 15.5561C11.8283 15.3348 11.7545 15.0747 11.7545 14.8086C11.7545 14.4517 11.8871 14.1095 12.1231 13.8572C12.3592 13.6049 12.6793 13.4631 13.0131 13.4631ZM13.0131 1.80236C13.262 1.80236 13.5053 1.88127 13.7123 2.02911C13.9193 2.17695 14.0806 2.38709 14.1759 2.63294C14.2711 2.87879 14.296 3.14932 14.2475 3.41032C14.1989 3.67131 14.079 3.91105 13.903 4.09922C13.727 4.28739 13.5028 4.41553 13.2586 4.46745C13.0145 4.51936 12.7614 4.49272 12.5315 4.39088C12.3015 4.28905 12.1049 4.11659 11.9666 3.89533C11.8283 3.67407 11.7545 3.41394 11.7545 3.14783C11.7545 2.79099 11.8871 2.44876 12.1231 2.19644C12.3592 1.94411 12.6793 1.80236 13.0131 1.80236ZM2.94453 7.18424C3.19345 7.18424 3.43678 7.26315 3.64376 7.411C3.85073 7.55884 4.01204 7.76897 4.1073 8.01482C4.20256 8.26068 4.22748 8.53121 4.17892 8.7922C4.13036 9.0532 4.01049 9.29294 3.83448 9.48111C3.65846 9.66927 3.43421 9.79742 3.19007 9.84933C2.94593 9.90125 2.69287 9.8746 2.4629 9.77277C2.23292 9.67093 2.03636 9.49848 1.89807 9.27722C1.75978 9.05596 1.68596 8.79582 1.68596 8.52971C1.68596 8.17287 1.81856 7.83065 2.05459 7.57832C2.29062 7.326 2.61074 7.18424 2.94453 7.18424Z" fill="black"/>
</svg>
