<svg width="22" height="19" viewBox="0 0 22 19" fill="none" xmlns="http://www.w3.org/2000/svg">
<path d="M12.0836 8.99079V8.28454C13.0133 8.0528 13.8367 7.53098 14.4249 6.80088C15.0131 6.07078 15.3326 5.17367 15.3336 4.25016C15.3336 1.95225 13.3901 0.0834961 11.0002 0.0834961C8.61039 0.0834961 6.66689 1.95225 6.66689 4.25016H8.83356C8.83356 3.1012 9.80531 2.16683 11.0002 2.16683C12.1951 2.16683 13.1669 3.1012 13.1669 4.25016C13.1669 5.39912 12.1951 6.3335 11.0002 6.3335C10.7129 6.3335 10.4374 6.44324 10.2342 6.63859C10.031 6.83394 9.91689 7.0989 9.91689 7.37516V8.99079L0.52981 17.0137C0.366314 17.1544 0.251029 17.3394 0.19918 17.5444C0.14733 17.7493 0.161353 17.9646 0.239399 18.1617C0.317444 18.3589 0.455841 18.5286 0.636313 18.6486C0.816785 18.7685 1.03085 18.833 1.25023 18.8335H20.7502C20.9698 18.833 21.184 18.7685 21.3645 18.6484C21.5451 18.5283 21.6835 18.3584 21.7614 18.1611C21.8394 17.9637 21.8532 17.7483 21.8011 17.5432C21.749 17.3382 21.6334 17.1532 21.4696 17.0127L12.0836 8.99079ZM4.09939 16.7502L11.0002 10.8522L17.9011 16.7502H4.09939Z" fill="black"/>
</svg>
