<svg width="71" height="71" viewBox="0 0 71 71" fill="none" xmlns="http://www.w3.org/2000/svg">
<path d="M35.2953 56.0512H35.2369C35.0561 56.0512 16.964 56.0162 12.3994 54.7766C9.88943 54.1005 7.9292 52.1391 7.25443 49.6287C6.43362 44.9982 6.03727 40.3021 6.07026 35.5995C6.04906 30.8891 6.45617 26.1866 7.28651 21.5499C7.97983 19.0373 9.93143 17.0669 12.4373 16.3495C16.8765 15.1829 34.4698 15.1829 35.2165 15.1829H35.2778C35.4615 15.1829 53.6003 15.2179 58.1182 16.4574C60.623 17.1371 62.5792 19.0944 63.2573 21.5995C64.1043 26.2474 64.5019 30.9658 64.4444 35.6899C64.4648 40.3945 64.0568 45.0912 63.2253 49.722C62.5419 52.2292 60.5804 54.1863 58.0715 54.8641C53.6382 56.0395 36.0419 56.0512 35.2953 56.0512ZM29.4619 26.8641L29.4473 44.3641L44.649 35.6141L29.4619 26.8641Z" fill="#525252" fill-opacity="0.7"/>
</svg>
